<?xml version="1.0" encoding="UTF-8"?>
<svg width="71px" height="90px" viewBox="0 0 71 90" version="1.1" xmlns="http://www.w3.org/2000/svg" xmlns:xlink="http://www.w3.org/1999/xlink">
    <!-- Generator: Sketch 55.2 (78181) - https://sketchapp.com -->
    <title>22) Icon/82) add podcast</title>
    <desc>Created with Sketch.</desc>
    <defs>
        <path d="M21.831889,11.91985 C22.5842582,10.9186628 24.0275275,10.7010514 25.0555212,11.4338015 C26.083515,12.1665515 26.3069528,13.5721853 25.5545836,14.5733726 L17.6514075,25.0902293 C17.3196194,25.5317439 16.6927338,25.6206948 16.2512192,25.2889067 C16.21685,25.263079 16.1841821,25.2350618 16.1534189,25.2050295 L9.67365128,18.8792064 C8.77393706,18.0008674 8.77567359,16.5784897 9.67752993,15.7022369 C10.5793863,14.8259841 12.0398478,14.8276753 12.939562,15.7060144 L16.427696,19.1112782 L21.831889,11.91985 Z" id="path-1"></path>
    </defs>
    <g id="WebApp" stroke="none" stroke-width="1" fill="none" fillRule="evenodd">
        <g id="Repod-Communities/-claim-/-find-show" transform="translate(-692.000000, -200.000000)">
            <g id="Group-2" transform="translate(415.000000, 200.000000)">
                <g id="22)-Icon/82)-add-podcast" transform="translate(277.000000, 0.000000)">
                    <path d="M27.9983333,61.3333333 C19.2538248,61.3333333 12.165,54.2445085 12.165,45.5 L12.165,25.7083333 C12.165,16.9638248 19.2538248,9.875 27.9983333,9.875 C36.7428419,9.875 43.8316667,16.9638248 43.8316667,25.7083333 L43.8316667,45.5 C43.8316667,54.2445085 36.7428419,61.3333333 27.9983333,61.3333333 Z M20.0816667,25.7083333 L20.0816667,45.5 C20.0816667,49.8722543 23.6260791,53.4166667 27.9983333,53.4166667 C32.3705876,53.4166667 35.915,49.8722543 35.915,45.5 L35.915,25.7083333 C35.915,21.3360791 32.3705876,17.7916667 27.9983333,17.7916667 C23.6260791,17.7916667 20.0816667,21.3360791 20.0816667,25.7083333 Z M55.7066667,45.5 C55.6905384,59.2614711 45.5770015,70.9257503 31.9566667,72.8916667 L31.9566667,81.125 L40.30875,81.125 C42.2544031,81.125 43.8316667,82.7022635 43.8316667,84.6479167 L43.8316667,85.51875 C43.8316667,87.4644031 42.2544031,89.0416667 40.30875,89.0416667 L15.6879167,89.0416667 C13.7422635,89.0416667 12.165,87.4644031 12.165,85.51875 L12.165,84.6479167 C12.165,82.7022635 13.7422635,81.125 15.6879167,81.125 L24.04,81.125 L24.04,72.8916667 C10.4196652,70.9257503 0.306128306,59.2614711 0.29,45.5 C0.29,43.3138729 2.0622062,41.5416667 4.24833333,41.5416667 C6.43446047,41.5416667 8.20666667,43.3138729 8.20666667,45.5 C8.20666667,56.4306357 17.0676977,65.2916667 27.9983333,65.2916667 C38.928969,65.2916667 47.79,56.4306357 47.79,45.5 C47.79,43.3138729 49.5622062,41.5416667 51.7483333,41.5416667 C53.9344605,41.5416667 55.7066667,43.3138729 55.7066667,45.5 Z" id="🎨-Icon-Сolor" fill="#0D1C2E" fillRule="nonzero"></path>
                    <g id="Group" transform="translate(35.000000, 0.000000)">
                        <rect id="Rectangle" fill="#0095FF" x="12" y="0" width="12" height="36" rx="6"></rect>
                        <rect id="Rectangle" fill="#0095FF" transform="translate(18.000000, 18.000000) rotate(90.000000) translate(-18.000000, -18.000000) " x="12" y="0" width="12" height="36" rx="6"></rect>
                        <rect id="Rectangle" fill="#0095FF" transform="translate(18.000000, 18.000000) rotate(45.000000) translate(-18.000000, -18.000000) " x="12" y="0" width="12" height="36" rx="6"></rect>
                        <rect id="Rectangle" fill="#0095FF" transform="translate(18.000000, 18.000000) rotate(-45.000000) translate(-18.000000, -18.000000) " x="12" y="0" width="12" height="36" rx="6"></rect>
                        <mask id="mask-2" fill="white">
                            <use xlink:href="#path-1"></use>
                        </mask>
                        <use id="🎨-Icon-Color" fill="#FFFFFF" fillRule="nonzero" xlink:href="#path-1"></use>
                    </g>
                </g>
            </g>
        </g>
    </g>
</svg>