<?xml version="1.0" encoding="UTF-8"?>
<svg width="218px" height="177px" viewBox="0 0 218 177" version="1.1" xmlns="http://www.w3.org/2000/svg" xmlns:xlink="http://www.w3.org/1999/xlink">
    <!-- Generator: Sketch 55.2 (78181) - https://sketchapp.com -->
    <title>rocket</title>
    <desc>Created with Sketch.</desc>
    <defs>
        <linearGradient x1="100%" y1="83.2657309%" x2="0%" y2="16.7342691%" id="linearGradient-1">
            <stop stop-color="#4FDFEC" offset="0%"></stop>
            <stop stop-color="#1E72FF" offset="100%"></stop>
        </linearGradient>
        <path d="M146.874817,129.981534 C120.338654,161.290093 68.9705281,147.001227 62.547532,106.692021 C62.4821116,106.285532 61.9940861,106.120133 61.7041234,106.408708 L57.8672546,110.225514 C53.1249198,114.945223 45.9604954,107.804168 50.699209,103.091667 L63.3731971,90.4781469 C65.3535077,88.5072844 68.5627425,88.5072844 70.5412426,90.4781469 L83.2152307,103.091667 C87.9607339,107.811376 80.7822776,114.941619 76.0471851,110.225514 L73.5664783,107.756642 C73.479838,107.670415 73.3489972,107.65282 73.2446767,107.71441 C73.1403562,107.774238 73.0855457,107.8939 73.1156012,108.0118 C80.3420376,137.900437 118.981859,147.247957 139.1335,123.475976 C143.454832,118.371104 151.194157,124.890763 146.87459,129.981399 L146.874817,129.981534 Z M168.589178,94.9083001 L155.916209,107.52185 C153.936057,109.492717 150.727081,109.492717 148.74874,107.52185 L136.075771,94.9083001 C131.330649,90.1885801 138.508528,83.0619246 143.24324,87.7744368 L145.723747,90.2433139 C145.810381,90.329541 145.941211,90.3471369 146.045523,90.2855468 C146.149835,90.225718 146.204641,90.106056 146.174588,89.9881553 C138.948733,60.0994486 100.312019,50.7519074 80.1619983,74.5239435 C75.8321879,79.6270253 68.0955215,73.1091537 72.4129304,68.0185053 C98.9469591,36.7098733 150.310955,50.9987725 156.733434,91.3080732 C156.798849,91.7145628 157.286836,91.8799625 157.576775,91.591387 L161.413335,87.7745719 C166.163888,83.0535005 173.327737,90.195923 168.589404,94.9084352 L168.589178,94.9083001 Z M217.144191,15.1721768 L217.144191,161.827823 C217.144191,170.207694 210.366151,177 202.003881,177 L15.2845012,177 C6.92223051,177 0.144190871,170.207694 0.144190871,161.827823 L0.144190871,15.1721768 C0.144190871,6.79230569 6.92223051,0 15.2845012,0 L202.003881,0 C210.366151,0 217.144191,6.79230569 217.144191,15.1721768 Z M184.341687,10.113731 C180.161408,10.113731 176.771532,13.5108772 176.771532,17.6998194 C176.771532,21.890658 180.161543,25.2859078 184.341687,25.2859078 C188.523724,25.2859078 191.911842,21.8887616 191.911842,17.6998194 C191.911842,13.5089808 188.521831,10.113731 184.341687,10.113731 Z M154.063319,10.113731 C149.881283,10.113731 146.493164,13.5108772 146.493164,17.6998194 C146.493164,21.890658 149.883175,25.2859078 154.063319,25.2859078 C158.245356,25.2859078 161.633475,21.8887616 161.633475,17.6998194 C161.633475,13.5089808 158.243464,10.113731 154.063319,10.113731 Z M123.784952,10.113731 C119.602915,10.113731 116.214797,13.5108772 116.214797,17.6998194 C116.214797,21.890658 119.604808,25.2859078 123.784952,25.2859078 C127.966988,25.2859078 131.355107,21.8887616 131.355107,17.6998194 C131.355107,13.5089808 127.965096,10.113731 123.784952,10.113731 Z M202.006992,159.297923 L202.006992,37.9259692 C202.006992,36.5290381 200.875231,35.3967012 199.483036,35.3967012 L17.8101268,35.3967012 C16.4161296,35.3967012 15.2844111,36.5308442 15.2844111,37.9259692 L15.2844111,159.296159 C15.2844111,160.69309 16.416172,161.825427 17.8083668,161.825427 L199.481277,161.827191 C200.875274,161.827191 202.006992,160.693048 202.006992,159.297923 Z" id="path-2"></path>
    </defs>
    <g id="WebApp" stroke="none" stroke-width="1" fill="none" fill-rule="evenodd">
        <g id="Repod-Communities/-console/-episodes-/-init" transform="translate(-1025.000000, -306.000000)">
            <g id="Rectangle-2" transform="translate(915.000000, 253.000000)">
                <g id="rocket" transform="translate(110.000000, 53.000000)">
                    <mask id="mask-3" fill="white">
                        <use xlink:href="#path-2"></use>
                    </mask>
                    <use id="🎨-Icon-Сolor" fill="url(#linearGradient-1)" fill-rule="nonzero" xlink:href="#path-2"></use>
                </g>
            </g>
        </g>
    </g>
</svg>