<?xml version="1.0" encoding="UTF-8"?>
<svg width="178px" height="217px" viewBox="0 0 178 217" version="1.1" xmlns="http://www.w3.org/2000/svg" xmlns:xlink="http://www.w3.org/1999/xlink">
    <!-- Generator: Sketch 55.2 (78181) - https://sketchapp.com -->
    <title>import</title>
    <desc>Created with Sketch.</desc>
    <defs>
        <linearGradient x1="83.2657309%" y1="100%" x2="16.7342691%" y2="0%" id="linearGradient-1">
            <stop stop-color="#A78AFC" offset="0%"></stop>
            <stop stop-color="#6E52F7" offset="100%"></stop>
        </linearGradient>
        <path d="M94.6438471,193.250789 L94.6438471,212.007261 C94.6438471,218.669381 83.6441909,218.65911 83.6441909,212.007261 L83.6441909,193.250789 C83.6441909,192.55997 84.2599811,192 85.0196636,192 L93.2706335,192 C94.0284007,192 94.6441909,192.55997 94.6441909,193.250789 L94.6438471,193.250789 Z M74.6438471,182.250789 L74.6438471,201.007261 C74.6438471,207.669381 63.6441909,207.65911 63.6441909,201.007261 L63.6441909,182.250789 C63.6441909,181.55997 64.2599811,181 65.0196636,181 L73.2706335,181 C74.0284007,181 74.6441909,181.561712 74.6441909,182.250789 L74.6438471,182.250789 Z M114.643847,182.250789 L114.643847,201.007261 C114.643847,207.669381 103.644191,207.65911 103.644191,201.007261 L103.644191,182.250789 C103.644191,181.55997 104.259981,181 105.019664,181 L113.270633,181 C114.028401,181 114.644191,181.561712 114.644191,182.250789 L114.643847,182.250789 Z M177.627107,79.2936557 C177.045034,97.1386384 161.696524,111 143.799057,111 L125.808124,111 C125.109645,111 124.543466,110.435139 124.543466,109.738287 L124.543466,98.2455652 C124.543466,95.111555 123.813245,92.0216922 122.407483,89.2201385 L100.451626,45.4088657 C98.0422842,40.6031131 92.9164213,37.8335437 87.4293761,38.5493612 C83.1644989,39.1071943 79.5523597,41.9860509 77.6279203,45.8255624 L55.8802208,89.2214899 C54.474459,92.0211516 53.7442376,95.1111045 53.7442376,98.2433128 L53.7442376,109.737837 C53.7442376,110.434689 53.1780587,111 52.4795803,111 L33.5151384,111 C14.8347115,111 -0.209057782,95.4524805 0.681819454,76.6204896 C1.51255232,58.9777737 16.7428956,45.4087756 34.4430414,45.4087756 L38.5209383,45.4087756 C39.0906391,45.4087756 39.5756773,45.0181212 39.7221099,44.47087 C45.3960903,23.2508687 69.9694917,13.7236039 88.4291182,24.8996364 C89.1628615,25.3430829 90.0835852,24.9805837 90.3111133,24.1535465 C94.1138903,10.2376764 106.86075,0 122.015596,0 C145.318832,0 161.120727,23.5287266 152.548799,44.8969368 C152.264825,45.6025734 152.647573,46.3733047 153.383099,46.5721929 C167.691319,50.4399949 178.134405,63.6815369 177.626429,79.2939259 L177.627107,79.2936557 Z M53.6441909,169.749088 C53.6441909,170.439975 53.0683815,171 52.3581355,171 L38.2161179,171 C36.7974625,171 35.6441909,169.87995 35.6441909,168.498176 L35.6441909,153.490629 C35.6441909,144.086906 43.2682356,136.412521 52.8335306,136.000731 C53.2711476,135.98154 53.6441909,136.342678 53.6441909,136.770135 L53.6441909,169.749088 Z M125.454763,136.000864 C135.019648,136.412599 142.644191,144.085668 142.644191,153.490696 L142.644191,168.498186 C142.644191,169.878168 141.49275,171 140.072251,171 L125.930161,171 C125.219911,171 124.644191,170.439977 124.644191,169.749093 L124.644191,136.768523 C124.644191,136.34109 125.017245,135.979962 125.454855,136.000864 L125.454763,136.000864 Z M114.644191,97.8549995 L114.644191,170.087166 C114.644191,170.785909 114.072993,171.352302 113.368605,171.352302 L105.239605,171.352302 C104.640176,171.352302 104.147472,171.772252 104.010511,172.350977 C102.406295,179.029437 96.3673751,184 89.144077,184 C81.9207789,184 75.8820416,179.029437 74.2776434,172.350977 C74.1371208,171.772247 73.6479784,171.352302 73.0485489,171.352302 L64.9195495,171.352302 C64.2151606,171.352302 63.6441909,170.785909 63.6441909,170.087166 L63.6441909,97.8549995 C63.6441909,96.2844208 64.0141669,94.7369694 64.7221075,93.3289142 L86.8637497,49.398784 C87.8049232,47.5337387 90.4854621,47.5337387 91.4264079,49.398784 L113.56805,93.3289142 C114.274215,94.7354336 114.644191,96.2846015 114.644191,97.8549995 Z M89.1443047,125.821871 C97.5952402,125.821871 104.445147,119.028226 104.445147,110.643675 C104.445147,102.26048 97.5952402,95.4654794 89.1443047,95.4654794 C80.6933692,95.4654794 73.8434623,102.26048 73.8434623,110.643675 C73.8434623,119.02687 80.6933692,125.821871 89.1443047,125.821871 Z" id="path-2"></path>
    </defs>
    <g id="WebApp" stroke="none" stroke-width="1" fill="none" fill-rule="evenodd">
        <g id="Repod-Communities/-console/-episodes-/-init" transform="translate(-536.000000, -289.000000)">
            <g id="Rectangle-2" transform="translate(385.000000, 253.000000)">
                <g id="import" transform="translate(151.000000, 36.000000)">
                    <mask id="mask-3" fill="white">
                        <use xlink:href="#path-2"></use>
                    </mask>
                    <use id="🎨-Icon-Сolor" fill="url(#linearGradient-1)" fill-rule="nonzero" xlink:href="#path-2"></use>
                </g>
            </g>
        </g>
    </g>
</svg>