<?xml version="1.0" encoding="UTF-8"?>
<svg width="358px" height="325px" viewBox="0 0 358 325" version="1.1" xmlns="http://www.w3.org/2000/svg" xmlns:xlink="http://www.w3.org/1999/xlink">
    <!-- Generator: Sketch 55.2 (78181) - https://sketchapp.com -->
    <title>Asset 4</title>
    <desc>Created with Sketch.</desc>
    <defs>
        <linearGradient x1="-0.0104378682%" y1="50.0014718%" x2="100.005215%" y2="50.0014718%" id="linearGradient-1">
            <stop stop-color="#14D08E" offset="0%"></stop>
            <stop stop-color="#14D08E" offset="100%"></stop>
        </linearGradient>
        <linearGradient x1="0.00128057259%" y1="49.8719853%" x2="100.023263%" y2="49.8719853%" id="linearGradient-2">
            <stop stop-color="#14D08E" offset="0%"></stop>
            <stop stop-color="#14D08E" offset="100%"></stop>
        </linearGradient>
        <linearGradient x1="0.344869953%" y1="49.9291359%" x2="100.240117%" y2="49.9291359%" id="linearGradient-3">
            <stop stop-color="#14D08E" offset="0%"></stop>
            <stop stop-color="#14D08E" offset="100%"></stop>
        </linearGradient>
    </defs>
    <g id="Experimental-Stuff" stroke="none" strokeWidth="1" fill="none" fillRule="evenodd">
        <g id="socials-logo" transform="translate(-77.000000, -79.000000)">
            <g id="Group">
                <g id="Asset-4" transform="translate(77.000000, 79.000000)">
                    <path d="M304.171993,192.040887 C304.05989,190.797 303.922876,189.553113 303.76095,188.309225 C303.753869,187.8718 303.716412,187.435392 303.648847,187.003144 C297.520566,148.268493 283.264839,126.568879 251.988186,79.0461654 L251.857399,78.840924 C238.778751,59.0817744 233.808865,42.5505122 237.227997,31.019677 C238.740833,25.7036965 242.384917,21.2476372 247.298556,18.7051928 C251.584394,17.0248506 254.091467,12.5618394 253.293375,8.03340864 C252.495283,3.50497784 248.613002,0.164959851 244.01021,0.0468834025 C222.505176,-0.624815736 204.494009,5.92425087 190.481171,19.4888418 C162.642334,46.4314406 160.493699,91.3046747 160.493699,104.402808 L160.493699,106.268639 C160.243667,112.492163 155.118762,117.408864 148.881728,117.408864 C142.644693,117.408864 137.519788,112.492163 137.269756,106.268639 C137.322732,91.7116948 139.20584,77.2189973 142.874891,63.1306275 C143.891051,58.9477942 142.014979,54.5979717 138.273346,52.461575 C134.531713,50.3251783 129.826294,50.9171034 126.732102,53.9134227 C61.0772877,117.612891 54.4445446,184.894755 54.2016555,187.637526 C54.2016555,187.861426 54.2016555,188.066667 54.2016555,188.290567 C54.0397293,189.534454 53.9027149,190.778342 53.7906122,192.022229 C19.057459,206.743635 0,227.043876 0,249.545797 C0,261.43114 5.605135,279.100559 31.7624317,295.743771 C34.6845545,297.701683 38.4405795,297.92143 41.5716491,296.317663 C44.7027187,294.713895 46.7154013,291.539353 46.8279618,288.027044 C46.9405222,284.514735 45.1352218,281.21817 42.1132476,279.41775 C31.6876965,272.831367 19.2629806,262.289422 19.2629806,249.564455 C19.2629806,237.119363 31.8558506,224.039888 53.547723,213.385993 C56.0139824,245.105119 70.9796929,272.178326 97.3051436,291.937476 C126.152905,313.618431 166.864869,325 210.584922,325 C235.239718,324.956305 259.766884,321.464379 283.451677,314.62598 C330.833752,299.960549 357.999986,276.245838 357.999986,249.564455 C358.018656,227.062534 338.979881,206.780952 304.171993,192.040887 Z M277.846542,296.116937 C215.143765,314.178181 148.835018,306.472299 108.926457,276.488396 C84.8056926,258.33386 72.4930746,233.928792 72.4930746,203.944889 C72.4930746,199.202738 72.8037477,194.465667 73.4272685,189.764573 C73.4534813,189.354508 73.4534813,188.94319 73.4272685,188.533125 C75.3892494,175.529988 78.901845,162.807926 83.8901872,150.638099 C92.4570648,129.385646 104.137307,109.521722 118.548605,91.6964992 C117.969408,98.618732 117.969408,103.544526 117.969408,106.343272 C117.969408,123.423312 131.83442,137.26942 148.937779,137.26942 C166.041138,137.26942 179.90615,123.423312 179.90615,106.343272 L179.90615,104.477441 C179.90615,81.4157707 186.239952,50.6482185 204.026914,33.4265989 C208.473386,29.0658323 213.727987,25.6119037 219.497087,23.2578203 C219.310249,23.7989113 219.123411,24.3400022 218.936573,24.8997515 C213.331438,42.4012458 219.086043,64.0822013 235.751978,89.4761604 L235.882765,89.6814018 C266.206545,135.804743 278.855466,155.116093 284.460601,189.186166 C284.460601,189.447382 284.460601,189.727257 284.460601,189.988473 C285.069796,194.634495 285.37561,199.31518 285.376107,204.000864 C285.402423,218.054095 282.620266,231.971284 277.19261,244.937194 C275.128856,249.862841 277.45433,255.526588 282.386701,257.587528 C287.319073,259.648468 292.990553,257.326165 295.054306,252.400518 C300.252868,240.009295 303.407669,226.859107 304.396198,213.460626 C326.050703,224.114521 338.606306,237.193996 338.606306,249.639088 C338.662257,266.692783 315.382263,284.548785 277.921277,296.116937 L277.846542,296.116937 Z" id="Shape" fill="url(#linearGradient-1)" fillRule="nonzero"></path>
                    <path d="M247.986855,175.959475 C225.054268,171.914865 201.814814,169.921477 178.537258,170.002366 C154.548184,169.924007 130.601909,172.058543 106.995124,176.379528 C103.563612,177.020737 100.730516,179.467393 99.5630372,182.797862 C98.3955579,186.128332 99.0710627,189.836639 101.335095,192.525899 C103.599128,195.215159 107.107728,196.47681 110.53924,195.8356 C132.976218,191.724892 155.73625,189.692606 178.537258,189.763931 C200.654133,189.711004 222.732776,191.627714 244.518146,195.491921 C247.953025,196.112666 251.453957,194.830286 253.702175,192.12784 C255.950394,189.425394 256.60434,185.713449 255.417679,182.390257 C254.231017,179.067066 251.384031,176.637501 247.949152,176.016755 L247.986855,175.959475 Z" id="Path" fill="url(#linearGradient-2)"></path>
                    <path d="M218.732186,212.216287 C190.506524,209.185211 162.016273,209.263438 133.808862,212.449465 C130.306489,212.731868 127.243099,214.841371 125.82131,217.949831 C124.39952,221.058292 124.846286,224.669518 126.986217,227.365826 C129.126148,230.062133 132.617655,231.41312 136.090052,230.88842 C162.819439,227.874413 189.816058,227.802205 216.562274,230.67318 C221.748625,231.108131 226.349556,227.468854 226.937681,222.466365 C227.525806,217.463875 223.887114,212.918522 218.732186,212.216287 Z" id="Path" fill="url(#linearGradient-3)"></path>
                </g>
            </g>
        </g>
    </g>
</svg>